<svg id="Camada_1" data-name="Camada 1" xmlns="http://www.w3.org/2000/svg" viewBox="0 0 9766.8 2313.54"><defs><style>.cls-1{fill:#1d1d1b;stroke:#1e1e1c;stroke-miterlimit:10;stroke-width:0.1px;}</style></defs><path class="cls-1" d="M155.89,4220.77V6232.5l895.17-798.92,343.31,587.16H2443.55l-3.21-1800L1930.19,4224l-6.42,1646-474.86-802.13L1821.1,4721.3V3996.18L685.29,5064.61,682.08,4224Z" transform="translate(-155.84 -3931.9)"/><path class="cls-1" d="M2568.68,6007.9v-1.64c-.94-311-5.36-1689.42-6.41-2000.46L3707.7,5055V4220.77l532.61-3.21V5796.14L5311.94,3932q503.75,864.71,1007.47,1729.39V4220.77l526.2-3.21,6.41,850.25L7987.83,3999.38l3.21,731.54L7625.27,5071l494.11,843.84,3.21-1697.3,1800,6.42-288.77,510.15-994.63-3.21q1.6,64.17,3.2,128.34l904.8,6.42-275.93,503.73H8645.57V5501l532.61,6.42-279.13,503.73-1318.7,9.63-349.72-603.2-898.38,827.79-3.21-231-1504.79-6.42,285.56-500.52,521.38,1.6-319.25-534.21-606.4,1036.34-476.46-1.6q1.6,108.28,3.2,216.57L3072.41,5173.69l6.42,834.21-525.12.54" transform="translate(-155.84 -3931.9)"/></svg>